<svg width="684pt" height="663pt" viewBox="0.00 0.00 684.00 663.00" xmlns="http://www.w3.org/2000/svg" xmlns:xlink="http://www.w3.org/1999/xlink">
<g id="graph0" class="graph" transform="scale(1 1) rotate(0) translate(4 659.28)">
<title>client_fsm</title>
<polygon fill="white" stroke="none" points="-4,4 -4,-659.28 679.97,-659.28 679.97,4 -4,4"/>
<!-- START -->
<g id="node1" class="node">
<title>START</title>
<ellipse fill="none" stroke="black" cx="294.45" cy="-609.66" rx="41.62" ry="41.62"/>
<ellipse fill="none" stroke="black" cx="294.45" cy="-609.66" rx="45.62" ry="45.62"/>
<text xml:space="preserve" text-anchor="middle" x="294.45" y="-605.46" font-family="Times,serif" font-size="14.00">START</text>
</g>
<!-- IDLE -->
<g id="node3" class="node">
<title>IDLE</title>
<polygon fill="none" stroke="black" points="321.45,-511.24 267.45,-511.24 267.45,-475.24 321.45,-475.24 321.45,-511.24"/>
<text xml:space="preserve" text-anchor="middle" x="294.45" y="-489.04" font-family="Times,serif" font-size="14.00">IDLE</text>
</g>
<!-- START&#45;&gt;IDLE -->
<g id="edge1" class="edge">
<title>START-&gt;IDLE</title>
<path fill="none" stroke="black" d="M294.45,-563.77C294.45,-550.06 294.45,-535.35 294.45,-523.02"/>
<polygon fill="black" stroke="black" points="297.95,-523.11 294.45,-513.11 290.95,-523.11 297.95,-523.11"/>
<text xml:space="preserve" text-anchor="middle" x="311.16" y="-533.44" font-family="Times,serif" font-size="14.00">start()</text>
</g>
<!-- END -->
<g id="node2" class="node">
<title>END</title>
<ellipse fill="none" stroke="black" cx="568.45" cy="-45.62" rx="41.62" ry="41.62"/>
<ellipse fill="none" stroke="black" cx="568.45" cy="-45.62" rx="45.62" ry="45.62"/>
<text xml:space="preserve" text-anchor="middle" x="568.45" y="-41.42" font-family="Times,serif" font-size="14.00">START</text>
</g>
<!-- IDLE&#45;&gt;IDLE -->
<g id="edge2" class="edge">
<title>IDLE-&gt;IDLE</title>
<path fill="none" stroke="black" d="M321.69,-501.56C331.47,-501.74 339.45,-498.96 339.45,-493.24 339.45,-490.02 336.92,-487.73 332.97,-486.38"/>
<polygon fill="black" stroke="black" points="333.56,-482.93 323.19,-485.12 332.66,-489.87 333.56,-482.93"/>
<text xml:space="preserve" text-anchor="middle" x="394.27" y="-489.04" font-family="Times,serif" font-size="14.00">listen_for_knocks()</text>
</g>
<!-- KNOCK_IN_PROGRESS -->
<g id="node4" class="node">
<title>KNOCK_IN_PROGRESS</title>
<polygon fill="none" stroke="black" points="377.13,-422.44 211.77,-422.44 211.77,-386.44 377.13,-386.44 377.13,-422.44"/>
<text xml:space="preserve" text-anchor="middle" x="294.45" y="-400.24" font-family="Times,serif" font-size="14.00">KNOCK_IN_PROGRESS</text>
</g>
<!-- IDLE&#45;&gt;KNOCK_IN_PROGRESS -->
<g id="edge3" class="edge">
<title>IDLE-&gt;KNOCK_IN_PROGRESS</title>
<path fill="none" stroke="black" d="M267.07,-484.76C253.32,-479.47 237.91,-470.84 229.81,-457.24 223.31,-446.33 228.98,-436.79 239.2,-428.96"/>
<polygon fill="black" stroke="black" points="240.94,-432.01 247.42,-423.63 237.12,-426.14 240.94,-432.01"/>
<text xml:space="preserve" text-anchor="middle" x="284.63" y="-444.64" font-family="Times,serif" font-size="14.00">listen_for_knocks()</text>
</g>
<!-- KNOCK_IN_PROGRESS&#45;&gt;IDLE -->
<g id="edge5" class="edge">
<title>KNOCK_IN_PROGRESS-&gt;IDLE</title>
<path fill="none" stroke="black" d="M324.37,-422.89C336.23,-432.21 345.73,-444.4 339.45,-457.24 337.19,-461.87 333.98,-466.06 330.32,-469.8"/>
<polygon fill="black" stroke="black" points="328.12,-467.07 322.88,-476.28 332.72,-472.35 328.12,-467.07"/>
<text xml:space="preserve" text-anchor="middle" x="384.59" y="-444.64" font-family="Times,serif" font-size="14.00">record_knock()</text>
</g>
<!-- KNOCK_IN_PROGRESS&#45;&gt;KNOCK_IN_PROGRESS -->
<g id="edge4" class="edge">
<title>KNOCK_IN_PROGRESS-&gt;KNOCK_IN_PROGRESS</title>
<path fill="none" stroke="black" d="M377.39,-411.74C388.07,-410.47 395.13,-408.04 395.13,-404.44 395.13,-402.3 392.64,-400.58 388.38,-399.26"/>
<polygon fill="black" stroke="black" points="389.36,-395.89 378.88,-397.43 388.03,-402.76 389.36,-395.89"/>
<text xml:space="preserve" text-anchor="middle" x="438.27" y="-400.24" font-family="Times,serif" font-size="14.00">record_knock()</text>
</g>
<!-- SESSION_ACTIVE -->
<g id="node5" class="node">
<title>SESSION_ACTIVE</title>
<polygon fill="none" stroke="black" points="360.01,-318.04 228.89,-318.04 228.89,-282.04 360.01,-282.04 360.01,-318.04"/>
<text xml:space="preserve" text-anchor="middle" x="294.45" y="-295.84" font-family="Times,serif" font-size="14.00">SESSION_ACTIVE</text>
</g>
<!-- KNOCK_IN_PROGRESS&#45;&gt;SESSION_ACTIVE -->
<g id="edge6" class="edge">
<title>KNOCK_IN_PROGRESS-&gt;SESSION_ACTIVE</title>
<path fill="none" stroke="black" d="M294.45,-386.07C294.45,-370.7 294.45,-347.96 294.45,-329.86"/>
<polygon fill="black" stroke="black" points="297.95,-330.01 294.45,-320.01 290.95,-330.01 297.95,-330.01"/>
<text xml:space="preserve" text-anchor="middle" x="337.59" y="-355.84" font-family="Times,serif" font-size="14.00">record_knock()</text>
</g>
<!-- SESSION_ACTIVE&#45;&gt;SESSION_ACTIVE -->
<g id="edge7" class="edge">
<title>SESSION_ACTIVE-&gt;SESSION_ACTIVE</title>
<path fill="none" stroke="black" d="M360.3,-310.4C370.81,-308.88 378.01,-305.43 378.01,-300.04 378.01,-296.84 375.47,-294.32 371.21,-292.49"/>
<polygon fill="black" stroke="black" points="372.32,-289.16 361.77,-290.06 370.58,-295.94 372.32,-289.16"/>
<text xml:space="preserve" text-anchor="middle" x="465.52" y="-321.04" font-family="Times,serif" font-size="14.00">process_command()</text>
<text xml:space="preserve" text-anchor="middle" x="465.52" y="-304.24" font-family="Times,serif" font-size="14.00">RUN_COMMAND /</text>
<text xml:space="preserve" text-anchor="middle" x="465.52" y="-287.44" font-family="Times,serif" font-size="14.00">TRANSFER_TO_CLIENT /</text>
<text xml:space="preserve" text-anchor="middle" x="465.52" y="-270.64" font-family="Times,serif" font-size="14.00">TRANSFER_FROM_CLIENT</text>
</g>
<!-- WATCH_ACTIVE -->
<g id="node6" class="node">
<title>WATCH_ACTIVE</title>
<polygon fill="none" stroke="black" points="140.27,-180.04 14.62,-180.04 14.62,-144.04 140.27,-144.04 140.27,-180.04"/>
<text xml:space="preserve" text-anchor="middle" x="77.45" y="-157.84" font-family="Times,serif" font-size="14.00">WATCH_ACTIVE</text>
</g>
<!-- SESSION_ACTIVE&#45;&gt;WATCH_ACTIVE -->
<g id="edge8" class="edge">
<title>SESSION_ACTIVE-&gt;WATCH_ACTIVE</title>
<path fill="none" stroke="black" d="M228.63,-296.79C153.46,-292.68 37.28,-281.08 9.93,-248.44 -4.46,-231.27 -1.71,-217.18 9.93,-198.04 12.4,-193.98 15.51,-190.37 19.03,-187.16"/>
<polygon fill="black" stroke="black" points="20.87,-190.16 26.69,-181.31 16.62,-184.6 20.87,-190.16"/>
<text xml:space="preserve" text-anchor="middle" x="66.69" y="-227.44" font-family="Times,serif" font-size="14.00">process_command()</text>
<text xml:space="preserve" text-anchor="middle" x="66.69" y="-210.64" font-family="Times,serif" font-size="14.00">FILE_WATCH</text>
</g>
<!-- KEYLOG_ACTIVE -->
<g id="node7" class="node">
<title>KEYLOG_ACTIVE</title>
<polygon fill="none" stroke="black" points="426.38,-180.04 294.51,-180.04 294.51,-144.04 426.38,-144.04 426.38,-180.04"/>
<text xml:space="preserve" text-anchor="middle" x="360.45" y="-157.84" font-family="Times,serif" font-size="14.00">KEYLOG_ACTIVE</text>
</g>
<!-- SESSION_ACTIVE&#45;&gt;KEYLOG_ACTIVE -->
<g id="edge10" class="edge">
<title>SESSION_ACTIVE-&gt;KEYLOG_ACTIVE</title>
<path fill="none" stroke="black" d="M289.78,-281.89C285.01,-260.57 280.31,-223.85 295.93,-198.04 298.38,-193.99 301.48,-190.38 304.98,-187.17"/>
<polygon fill="black" stroke="black" points="306.81,-190.18 312.58,-181.3 302.53,-184.64 306.81,-190.18"/>
<text xml:space="preserve" text-anchor="middle" x="352.69" y="-227.44" font-family="Times,serif" font-size="14.00">process_command()</text>
<text xml:space="preserve" text-anchor="middle" x="352.69" y="-210.64" font-family="Times,serif" font-size="14.00">KEYLOG_START</text>
</g>
<!-- UNINSTALLED -->
<g id="node8" class="node">
<title>UNINSTALLED</title>
<polygon fill="none" stroke="black" points="625.05,-180.04 511.84,-180.04 511.84,-144.04 625.05,-144.04 625.05,-180.04"/>
<text xml:space="preserve" text-anchor="middle" x="568.45" y="-157.84" font-family="Times,serif" font-size="14.00">UNINSTALLED</text>
</g>
<!-- SESSION_ACTIVE&#45;&gt;UNINSTALLED -->
<g id="edge12" class="edge">
<title>SESSION_ACTIVE-&gt;UNINSTALLED</title>
<path fill="none" stroke="black" d="M360.29,-292.3C422.31,-284.73 509.47,-270.52 535.45,-248.44 552.22,-234.19 560.5,-210.37 564.57,-191.5"/>
<polygon fill="black" stroke="black" points="568,-192.2 566.37,-181.73 561.12,-190.93 568,-192.2"/>
<text xml:space="preserve" text-anchor="middle" x="619.21" y="-227.44" font-family="Times,serif" font-size="14.00">process_command()</text>
<text xml:space="preserve" text-anchor="middle" x="619.21" y="-210.64" font-family="Times,serif" font-size="14.00">UNINSTALL</text>
</g>
<!-- WATCH_ACTIVE&#45;&gt;SESSION_ACTIVE -->
<g id="edge9" class="edge">
<title>WATCH_ACTIVE-&gt;SESSION_ACTIVE</title>
<path fill="none" stroke="black" d="M103.63,-180.44C110.5,-185.65 117.61,-191.69 123.45,-198.04 141.42,-217.58 134.81,-231.81 155.5,-248.44 173.57,-262.95 196.16,-273.52 217.85,-281.12"/>
<polygon fill="black" stroke="black" points="216.71,-284.43 227.3,-284.25 218.91,-277.78 216.71,-284.43"/>
<text xml:space="preserve" text-anchor="middle" x="218.48" y="-235.84" font-family="Times,serif" font-size="14.00">process_command()</text>
<text xml:space="preserve" text-anchor="middle" x="218.48" y="-219.04" font-family="Times,serif" font-size="14.00">STOP_WATCH</text>
<text xml:space="preserve" text-anchor="middle" x="218.48" y="-202.24" font-family="Times,serif" font-size="14.00">[_stop_file_watcher()]</text>
</g>
<!-- KEYLOG_ACTIVE&#45;&gt;SESSION_ACTIVE -->
<g id="edge11" class="edge">
<title>KEYLOG_ACTIVE-&gt;SESSION_ACTIVE</title>
<path fill="none" stroke="black" d="M394.16,-180.53C400.32,-185.33 405.91,-191.16 409.45,-198.04 419.7,-217.96 421.69,-229.68 409.45,-248.44 400.16,-262.68 385.87,-272.93 370.48,-280.32"/>
<polygon fill="black" stroke="black" points="369.42,-276.96 361.64,-284.16 372.21,-283.38 369.42,-276.96"/>
<text xml:space="preserve" text-anchor="middle" x="474.66" y="-227.44" font-family="Times,serif" font-size="14.00">process_command()</text>
<text xml:space="preserve" text-anchor="middle" x="474.66" y="-210.64" font-family="Times,serif" font-size="14.00">KEYLOG_END</text>
</g>
<!-- UNINSTALLED&#45;&gt;END -->
<g id="edge13" class="edge">
<title>UNINSTALLED-&gt;END</title>
<path fill="none" stroke="black" d="M568.45,-143.66C568.45,-132.6 568.45,-117.6 568.45,-102.7"/>
<polygon fill="black" stroke="black" points="571.95,-102.91 568.45,-92.91 564.95,-102.91 571.95,-102.91"/>
<text xml:space="preserve" text-anchor="middle" x="604.41" y="-113.44" font-family="Times,serif" font-size="14.00">process exits</text>
</g>
</g>
</svg>