<svg width="1115pt" height="595pt" viewBox="0.00 0.00 1115.00 595.00" xmlns="http://www.w3.org/2000/svg" xmlns:xlink="http://www.w3.org/1999/xlink">
<g id="graph0" class="graph" transform="scale(1 1) rotate(0) translate(4 590.81)">
<title>commander_fsm</title>
<polygon fill="white" stroke="none" points="-4,4 -4,-590.81 1111.22,-590.81 1111.22,4 -4,4"/>
<!-- START -->
<g id="node1" class="node">
<title>START</title>
<ellipse fill="none" stroke="black" cx="500.55" cy="-541.19" rx="41.62" ry="41.62"/>
<ellipse fill="none" stroke="black" cx="500.55" cy="-541.19" rx="45.62" ry="45.62"/>
<text xml:space="preserve" text-anchor="middle" x="500.55" y="-536.99" font-family="Times,serif" font-size="14.00">START</text>
</g>
<!-- IDLE -->
<g id="node3" class="node">
<title>IDLE</title>
<polygon fill="none" stroke="black" points="527.55,-458.57 473.55,-458.57 473.55,-422.57 527.55,-422.57 527.55,-458.57"/>
<text xml:space="preserve" text-anchor="middle" x="500.55" y="-436.37" font-family="Times,serif" font-size="14.00">IDLE</text>
</g>
<!-- START&#45;&gt;IDLE -->
<g id="edge1" class="edge">
<title>START-&gt;IDLE</title>
<path fill="none" stroke="black" d="M500.55,-495.21C500.55,-486.67 500.55,-477.96 500.55,-470.11"/>
<polygon fill="black" stroke="black" points="504.06,-470.15 500.55,-460.15 497.06,-470.15 504.06,-470.15"/>
</g>
<!-- END -->
<g id="node2" class="node">
<title>END</title>
<ellipse fill="none" stroke="black" cx="1045.55" cy="-34.88" rx="30.88" ry="30.88"/>
<ellipse fill="none" stroke="black" cx="1045.55" cy="-34.88" rx="34.88" ry="34.88"/>
<text xml:space="preserve" text-anchor="middle" x="1045.55" y="-30.68" font-family="Times,serif" font-size="14.00">END</text>
</g>
<!-- KNOCKING -->
<g id="node4" class="node">
<title>KNOCKING</title>
<polygon fill="none" stroke="black" points="545.89,-369.77 455.22,-369.77 455.22,-333.77 545.89,-333.77 545.89,-369.77"/>
<text xml:space="preserve" text-anchor="middle" x="500.55" y="-347.57" font-family="Times,serif" font-size="14.00">KNOCKING</text>
</g>
<!-- IDLE&#45;&gt;KNOCKING -->
<g id="edge2" class="edge">
<title>IDLE-&gt;KNOCKING</title>
<path fill="none" stroke="black" d="M473.25,-432.93C458.5,-427.8 441.53,-419.05 432.71,-404.57 425.38,-392.55 432.83,-382.32 445.09,-374.21"/>
<polygon fill="black" stroke="black" points="446.49,-377.44 453.42,-369.43 443,-371.37 446.49,-377.44"/>
<text xml:space="preserve" text-anchor="middle" x="490.63" y="-391.97" font-family="Times,serif" font-size="14.00">interactive_session()</text>
</g>
<!-- KNOCKING&#45;&gt;IDLE -->
<g id="edge3" class="edge">
<title>KNOCKING-&gt;IDLE</title>
<path fill="none" stroke="black" d="M532.76,-370.22C545.26,-379.45 555.17,-391.56 548.55,-404.57 545.72,-410.14 541.54,-415.04 536.8,-419.26"/>
<polygon fill="black" stroke="black" points="534.84,-416.36 529.06,-425.23 539.11,-421.9 534.84,-416.36"/>
<text xml:space="preserve" text-anchor="middle" x="613.26" y="-391.97" font-family="Times,serif" font-size="14.00">perform_port_knock()</text>
</g>
<!-- SESSION_ACTIVE -->
<g id="node5" class="node">
<title>SESSION_ACTIVE</title>
<polygon fill="none" stroke="black" points="566.11,-280.97 435,-280.97 435,-244.97 566.11,-244.97 566.11,-280.97"/>
<text xml:space="preserve" text-anchor="middle" x="500.55" y="-258.77" font-family="Times,serif" font-size="14.00">SESSION_ACTIVE</text>
</g>
<!-- KNOCKING&#45;&gt;SESSION_ACTIVE -->
<g id="edge4" class="edge">
<title>KNOCKING-&gt;SESSION_ACTIVE</title>
<path fill="none" stroke="black" d="M454.76,-338.34C443.97,-333.15 433.76,-325.89 427.38,-315.77 420.24,-304.44 426.16,-294.88 437.16,-287.17"/>
<polygon fill="black" stroke="black" points="438.8,-290.27 445.63,-282.16 435.24,-284.24 438.8,-290.27"/>
<text xml:space="preserve" text-anchor="middle" x="489.97" y="-303.17" font-family="Times,serif" font-size="14.00">perform_port_knock()</text>
</g>
<!-- SESSION_ACTIVE&#45;&gt;KNOCKING -->
<g id="edge5" class="edge">
<title>SESSION_ACTIVE-&gt;KNOCKING</title>
<path fill="none" stroke="black" d="M535.76,-281.32C549.12,-290.45 559.62,-302.49 552.55,-315.77 550.57,-319.49 548,-322.89 545.05,-325.98"/>
<polygon fill="black" stroke="black" points="542.91,-323.21 537.7,-332.43 547.52,-328.47 542.91,-323.21"/>
<text xml:space="preserve" text-anchor="middle" x="576.59" y="-303.17" font-family="Times,serif" font-size="14.00">knock()</text>
</g>
<!-- SENDING -->
<g id="node6" class="node">
<title>SENDING</title>
<polygon fill="none" stroke="black" points="207.28,-175.37 129.83,-175.37 129.83,-139.37 207.28,-139.37 207.28,-175.37"/>
<text xml:space="preserve" text-anchor="middle" x="168.55" y="-153.17" font-family="Times,serif" font-size="14.00">SENDING</text>
</g>
<!-- SESSION_ACTIVE&#45;&gt;SENDING -->
<g id="edge6" class="edge">
<title>SESSION_ACTIVE-&gt;SENDING</title>
<path fill="none" stroke="black" d="M434.75,-262.17C307.12,-261.87 35.9,-257.58 7.38,-226.97 -2.8,-216.04 -1.99,-204.99 7.38,-193.37 21.14,-176.3 76.09,-167.13 118.04,-162.51"/>
<polygon fill="black" stroke="black" points="118.39,-166 127.98,-161.49 117.67,-159.03 118.39,-166"/>
<text xml:space="preserve" text-anchor="middle" x="76.97" y="-205.97" font-family="Times,serif" font-size="14.00">send_covert_command()</text>
</g>
<!-- WATCH_MODE -->
<g id="node8" class="node">
<title>WATCH_MODE</title>
<polygon fill="none" stroke="black" points="426.33,-175.37 310.78,-175.37 310.78,-139.37 426.33,-139.37 426.33,-175.37"/>
<text xml:space="preserve" text-anchor="middle" x="368.55" y="-153.17" font-family="Times,serif" font-size="14.00">WATCH_MODE</text>
</g>
<!-- SESSION_ACTIVE&#45;&gt;WATCH_MODE -->
<g id="edge10" class="edge">
<title>SESSION_ACTIVE-&gt;WATCH_MODE</title>
<path fill="none" stroke="black" d="M434.93,-258.56C386.74,-254.51 327.06,-245.77 311.42,-226.97 301.87,-215.49 304.12,-206.4 311.42,-193.37 313.6,-189.48 316.4,-185.98 319.59,-182.82"/>
<polygon fill="black" stroke="black" points="321.56,-185.73 327.04,-176.66 317.1,-180.34 321.56,-185.73"/>
<text xml:space="preserve" text-anchor="middle" x="357.49" y="-205.97" font-family="Times,serif" font-size="14.00">watch command</text>
</g>
<!-- KEYLOG_MODE -->
<g id="node9" class="node">
<title>KEYLOG_MODE</title>
<polygon fill="none" stroke="black" points="697.44,-175.37 575.67,-175.37 575.67,-139.37 697.44,-139.37 697.44,-175.37"/>
<text xml:space="preserve" text-anchor="middle" x="636.55" y="-153.17" font-family="Times,serif" font-size="14.00">KEYLOG_MODE</text>
</g>
<!-- SESSION_ACTIVE&#45;&gt;KEYLOG_MODE -->
<g id="edge12" class="edge">
<title>SESSION_ACTIVE-&gt;KEYLOG_MODE</title>
<path fill="none" stroke="black" d="M532.09,-244.47C539.89,-239.38 547.9,-233.43 554.55,-226.97 567.57,-214.32 564.49,-205.76 577.74,-193.37 582.14,-189.26 587.09,-185.41 592.22,-181.87"/>
<polygon fill="black" stroke="black" points="593.76,-185.04 600.27,-176.68 589.97,-179.16 593.76,-185.04"/>
<text xml:space="preserve" text-anchor="middle" x="626.15" y="-205.97" font-family="Times,serif" font-size="14.00">keylog command</text>
</g>
<!-- DISCONNECTED -->
<g id="node10" class="node">
<title>DISCONNECTED</title>
<polygon fill="none" stroke="black" points="1107.22,-175.37 983.89,-175.37 983.89,-139.37 1107.22,-139.37 1107.22,-175.37"/>
<text xml:space="preserve" text-anchor="middle" x="1045.55" y="-153.17" font-family="Times,serif" font-size="14.00">DISCONNECTED</text>
</g>
<!-- SESSION_ACTIVE&#45;&gt;DISCONNECTED -->
<g id="edge14" class="edge">
<title>SESSION_ACTIVE-&gt;DISCONNECTED</title>
<path fill="none" stroke="black" d="M566.59,-260.7C639.62,-258.11 760.32,-250.32 861.55,-226.97 909.02,-216.01 960.83,-195.92 997.34,-180.29"/>
<polygon fill="black" stroke="black" points="998.51,-183.6 1006.3,-176.41 995.73,-177.18 998.51,-183.6"/>
<text xml:space="preserve" text-anchor="middle" x="1031.88" y="-205.97" font-family="Times,serif" font-size="14.00">disconnect() / uninstall()</text>
</g>
<!-- SENDING&#45;&gt;SESSION_ACTIVE -->
<g id="edge8" class="edge">
<title>SENDING-&gt;SESSION_ACTIVE</title>
<path fill="none" stroke="black" d="M166.9,-175.74C166.44,-191.51 168.59,-214.19 182.6,-226.97 200.07,-242.89 334.98,-253.12 423.37,-258.18"/>
<polygon fill="black" stroke="black" points="423.02,-261.67 433.2,-258.73 423.41,-254.68 423.02,-261.67"/>
<text xml:space="preserve" text-anchor="middle" x="242.08" y="-214.37" font-family="Times,serif" font-size="14.00">send_packet()</text>
<text xml:space="preserve" text-anchor="middle" x="242.08" y="-197.57" font-family="Times,serif" font-size="14.00">[no response needed]</text>
</g>
<!-- AWAITING_RESPONSE -->
<g id="node7" class="node">
<title>AWAITING_RESPONSE</title>
<polygon fill="none" stroke="black" points="728.83,-52.88 564.28,-52.88 564.28,-16.88 728.83,-16.88 728.83,-52.88"/>
<text xml:space="preserve" text-anchor="middle" x="646.55" y="-30.68" font-family="Times,serif" font-size="14.00">AWAITING_RESPONSE</text>
</g>
<!-- SENDING&#45;&gt;AWAITING_RESPONSE -->
<g id="edge7" class="edge">
<title>SENDING-&gt;AWAITING_RESPONSE</title>
<path fill="none" stroke="black" d="M207.67,-146.51C285.76,-126.82 462.39,-82.3 566.2,-56.14"/>
<polygon fill="black" stroke="black" points="566.94,-59.56 575.78,-53.72 565.23,-52.77 566.94,-59.56"/>
<text xml:space="preserve" text-anchor="middle" x="491.95" y="-108.77" font-family="Times,serif" font-size="14.00">send_packet()</text>
<text xml:space="preserve" text-anchor="middle" x="491.95" y="-91.97" font-family="Times,serif" font-size="14.00">[response expected]</text>
</g>
<!-- AWAITING_RESPONSE&#45;&gt;SESSION_ACTIVE -->
<g id="edge9" class="edge">
<title>AWAITING_RESPONSE-&gt;SESSION_ACTIVE</title>
<path fill="none" stroke="black" d="M683.74,-53.32C750.44,-86.82 878.29,-162.58 820.55,-226.97 804.63,-244.73 667.56,-254.37 578.06,-258.82"/>
<polygon fill="black" stroke="black" points="577.91,-255.32 568.09,-259.3 578.25,-262.31 577.91,-255.32"/>
<text xml:space="preserve" text-anchor="middle" x="890.99" y="-161.57" font-family="Times,serif" font-size="14.00">receive_response()</text>
<text xml:space="preserve" text-anchor="middle" x="890.99" y="-144.77" font-family="Times,serif" font-size="14.00">[received or timeout]</text>
</g>
<!-- WATCH_MODE&#45;&gt;SESSION_ACTIVE -->
<g id="edge11" class="edge">
<title>WATCH_MODE-&gt;SESSION_ACTIVE</title>
<path fill="none" stroke="black" d="M387.02,-175.57C392.56,-181.06 398.5,-187.29 403.55,-193.37 415.13,-207.3 412.83,-215.22 426.62,-226.97 431.94,-231.5 437.95,-235.58 444.18,-239.22"/>
<polygon fill="black" stroke="black" points="442.3,-242.19 452.77,-243.86 445.63,-236.03 442.3,-242.19"/>
<text xml:space="preserve" text-anchor="middle" x="490.59" y="-214.37" font-family="Times,serif" font-size="14.00">stopwatch</text>
<text xml:space="preserve" text-anchor="middle" x="490.59" y="-197.57" font-family="Times,serif" font-size="14.00">(STOP_WATCH sent)</text>
</g>
<!-- KEYLOG_MODE&#45;&gt;SESSION_ACTIVE -->
<g id="edge13" class="edge">
<title>KEYLOG_MODE-&gt;SESSION_ACTIVE</title>
<path fill="none" stroke="black" d="M661.26,-175.56C666.64,-180.62 671.6,-186.63 674.55,-193.37 680.55,-207.04 684.02,-215.41 674.55,-226.97 662.02,-242.27 618.27,-251.03 577.78,-255.96"/>
<polygon fill="black" stroke="black" points="577.52,-252.47 567.98,-257.08 578.31,-259.42 577.52,-252.47"/>
<text xml:space="preserve" text-anchor="middle" x="748.52" y="-214.37" font-family="Times,serif" font-size="14.00">stopkeylog</text>
<text xml:space="preserve" text-anchor="middle" x="748.52" y="-197.57" font-family="Times,serif" font-size="14.00">(KEYLOG_END + file)</text>
</g>
<!-- DISCONNECTED&#45;&gt;END -->
<g id="edge15" class="edge">
<title>DISCONNECTED-&gt;END</title>
<path fill="none" stroke="black" d="M1045.55,-139.1C1045.55,-124.09 1045.55,-101.65 1045.55,-81.52"/>
<polygon fill="black" stroke="black" points="1049.06,-81.52 1045.55,-71.52 1042.06,-81.52 1049.06,-81.52"/>
</g>
</g>
</svg>